<?xml version="1.0" encoding="UTF-8"?><svg id="a" xmlns="http://www.w3.org/2000/svg" viewBox="0 0 352.75 186.63"><defs><style>.b{fill:#000030;}</style></defs><path class="b" d="M271.36-.04c.52,1.87-.43,3.55-.8,5.26-2.88,13.37-5.86,26.73-8.89,40.07-.38,1.68,.36,1.61,1.55,1.61,29.31-.02,58.61,0,87.92-.04,1.47,0,1.92,0,1.39,1.78-.63,2.12-1.62,2.56-3.69,2.56-28.82-.07-57.63-.04-86.45-.09-1.51,0-2.02,.39-2.35,1.88-4.05,18.56-8.19,37.09-12.29,55.63-1.06,4.77-2,9.57-3.14,14.32-.35,1.47-.18,1.82,1.38,1.81,11.99-.06,23.98-.03,35.98-.03,14.19,0,28.39,0,42.58,0h1.06c.03,.21,.09,.34,.05,.44q-1.15,3.89-5.22,3.89c-25.15,0-50.29,.02-75.44-.04-1.5,0-1.9,.5-2.16,1.87-.67,3.6-1.54,7.16-2.35,10.8-.5-.23-.45-.73-.53-1.15-.63-3.3-1.29-6.59-1.84-9.91-.19-1.14-.53-1.61-1.82-1.61-22.45,.05-44.91,.04-67.36,.02-.76,0-1.38,.16-2.02,.62-21.73,15.77-43.47,31.53-65.22,47.28-4.2,3.04-8.43,6.02-12.65,9.03l-.28-.27c12.55-12.76,25.1-25.52,37.65-38.28,5.74-5.83,11.49-11.66,17.23-17.48,.19-.2,.36-.42,.76-.89h-2.06c-46.87,0-93.73,0-140.6,0-2.14,0-1.97,.05-1.43-1.97,.52-1.94,1.5-2.41,3.46-2.4,47.78,.06,95.57,.05,143.35,.07,1.12,0,1.92-.28,2.73-1.1,23.47-23.89,46.97-47.76,70.46-71.63,.19-.2,.38-.4,.79-.84H26.32c.1-1.4,.83-2.44,1.13-3.6,.22-.86,.87-.69,1.46-.69,3.43,0,6.85,0,10.28,0,61.49,0,122.98,0,184.47,.02,1.17,0,2.04-.26,2.89-1.12,14.55-14.83,29.12-29.63,43.68-44.45,.43-.43,.79-.93,1.18-1.39l-.06,.02Zm-42.22,84.64c-18.47,13.39-36.74,26.62-55.37,40.12,20.99,0,41.47-.01,61.96,.03,1.26,0,1.15-.47,.97-1.39-1.05-5.21-2.03-10.43-3.04-15.65-1.48-7.6-2.97-15.19-4.52-23.1Zm11.61-29.2l-.31-.16c-10.16,10.32-20.31,20.63-30.47,30.95l.2,.21c7.72-5.58,15.44-11.16,23.3-16.85,.65,3.3,1.24,6.31,1.83,9.31l.27,.02,5.17-23.48Z"/><path class="b" d="M53.56,60.29c-1.96,5.52-3.86,10.85-5.76,16.19-1.85,5.23-3.7,10.46-5.55,15.69-.1,.29-.18,.58-.26,.88-1.37,4.86,.28,7.43,5.3,8.34,3.26,.59,6.54,.84,9.84,.89,3.97,.05,7.93-.05,11.87-.78,5.72-1.06,9.65-4.19,11.6-9.69,3.57-10.06,7.1-20.13,10.64-30.19,.24-.67,.34-1.36,1.39-1.35,5.38,.05,10.75,.02,16.38,.02-.97,2.78-1.86,5.41-2.79,8.03-3.03,8.5-5.87,17.07-9.18,25.46-4.16,10.52-12.15,17.05-22.88,20.17-11.79,3.44-23.76,3.25-35.75,1.13-2.58-.46-5.08-1.32-7.39-2.58-6.04-3.3-8.4-8.46-7.2-15.36,.8-4.61,2.68-8.87,4.19-13.24,2.55-7.38,5.21-14.72,7.77-22.1,.37-1.06,.77-1.55,2.02-1.53,5.19,.08,10.37,.03,15.77,.03Z"/><path class="b" d="M264.49,74.74c1.64-4.64,3.25-9.05,4.75-13.49,.4-1.19,1.24-.96,2.05-.96,12.05,0,24.11,0,36.16,0,8.93,0,17.87,.04,26.8-.04,1.54-.01,1.73,.35,1.23,1.7-1.43,3.83-2.79,7.69-4.12,11.55-.33,.96-.79,1.27-1.83,1.26-6.73-.06-13.46,0-20.19-.06-1.19-.01-1.7,.38-2.08,1.46-4.04,11.51-8.17,23-12.18,34.52-1.7,4.89-1.6,4.93-6.71,4.93-3.61,0-7.22-.05-10.83,.03-1.26,.03-1.42-.25-1-1.41,2.53-7.06,5-14.15,7.49-21.23,2-5.7,3.96-11.41,6.05-17.08,.51-1.4-.19-1.2-1.04-1.2-8.07,.01-16.15,0-24.53,0Z"/><path class="b" d="M114.4,74.74c1.62-4.64,3.2-9.12,4.73-13.62,.34-1,1.05-.84,1.77-.84,7.4,0,14.81,0,22.21,0,13.52,0,27.04,0,40.56,0h2.22c-1.26,3.6-2.42,7.06-3.68,10.48-1.47,3.98-1.51,3.97-5.75,3.97-5.81,0-11.62,.02-17.44-.02-1,0-1.44,.24-1.8,1.27-4.46,12.72-9,25.41-13.47,38.13-.41,1.16-.89,1.57-2.17,1.54-4.71-.1-9.42-.06-14.13-.02-1.07,0-1.53,.02-1.04-1.34,4.47-12.46,8.86-24.94,13.26-37.42,.75-2.13,.74-2.13-1.47-2.13-7.28,0-14.56,0-21.84,0h-1.95Z"/><path class="b" d="M89.08,185.96c-.19,.37-.45,.66-.93,.67-.16-.58,.43-.64,.65-.94l.28,.27Z"/></svg>